<svg width="256" height="256" viewBox="0 0 256 256" fill="none" xmlns="http://www.w3.org/2000/svg">
<circle cx="128" cy="128" r="128" fill="#E6E5E6"/>
<path d="M238.328 63.1015C251.67 85.7839 257.697 112.028 255.588 138.259C253.479 164.49 243.336 189.434 226.541 209.693C209.745 229.952 187.114 244.542 161.728 251.476C136.342 258.411 109.436 257.352 84.6738 248.444L128 128L238.328 63.1015Z" fill="#007AFF"/>
<path d="M37.4903 37.4903C51.463 23.5176 68.4811 12.9697 87.2113 6.67283C105.942 0.375952 125.875 -1.49888 145.451 1.19521C165.027 3.8893 183.713 11.0791 200.046 22.2015C216.379 33.3239 229.915 48.0768 239.594 65.3044L128 128L37.4903 37.4903Z" fill="#9013FE"/>
<path d="M85.7981 248.843C68.8847 242.936 53.3996 233.545 40.3445 221.277L128 128L85.7981 248.843Z" fill="#FB8832"/>
</svg>
