<svg width="256" height="256" viewBox="0 0 256 256" fill="none" xmlns="http://www.w3.org/2000/svg">
<circle cx="128" cy="128" r="94" fill="#9B51E0"/>
<path d="M238.328 63.1015C251.67 85.7839 257.697 112.028 255.588 138.259C253.479 164.49 243.336 189.434 226.541 209.693C209.745 229.952 187.114 244.542 161.728 251.476C136.342 258.411 109.436 257.352 84.6738 248.444L128 128L238.328 63.1015Z" fill="#FB8832"/>
<path d="M48.804 48.804C60.8952 36.7129 75.5944 27.5508 91.7747 22.0201C107.955 16.4895 125.187 14.7371 142.15 16.8974C159.112 19.0576 175.355 25.0732 189.632 34.4828C203.91 43.8925 215.843 56.4464 224.518 71.1822L128 128L48.804 48.804Z" fill="#007AFF"/>
<path d="M91.0733 233.738C76.2741 228.569 62.7247 220.352 51.3015 209.617L128 128L91.0733 233.738Z" fill="#E6E5E6"/>
</svg>
